# xmcd CD database file
#
# Track frame offsets:
#	150
#	21355
#	39010
#	63310
#	83795
#	104597
#	125830
#	149395
#	167182
#	186077
#	200467
#	229447
#	251810
#	284935
#	304515
#
# Disc length: 4384 seconds
#
# Revision: 38
# Processed by: cddbd v1.5.2PL0 Copyright (c) Steve Scherf et al.
# Submitted via: CDex 1.73
#
DISCID=e3111e0f
DTITLE=Eric Clapton - clapton chronicles - the best of eric clapton
DYEAR=1999
DGENRE=Pop/Rock
TTITLE0=Blue Eyes Blue
TTITLE1=Change The World
TTITLE2=My Father's Eyes
TTITLE3=Tears In Heaven
TTITLE4=Layla
TTITLE5=Pretending
TTITLE6=Bad Love
TTITLE7=Before You Accuse Me (Take A Look At Yourself)
TTITLE8=It's In The Way That You Use It
TTITLE9=Forever Man
TTITLE10=Running On Faith
TTITLE11=She's Waiting
TTITLE12=River Of Tears
TTITLE13=(I) Get Lost
TTITLE14=Wonderful Tonight (Live Edit)
EXTD=YEAR: 1999
EXTT0=
EXTT1=
EXTT2=
EXTT3=
EXTT4=
EXTT5=
EXTT6=
EXTT7=
EXTT8=
EXTT9=
EXTT10=
EXTT11=
EXTT12=
EXTT13=
EXTT14=
PLAYORDER=
